# xmcd CD database file
#
# Track frame offsets:
#	150
#	6167
#	14250
#	19627
#	27507
#	33815
#	41790
#	49182
#	55625
#	64715
#	73910
#	82780
#	90925
#	100245
#	107785
#	117917
#	126500
#	138712
#	148267
#	158512
#	170767
#	180685
#	190850
#	201282
#	212540
#	222560
#	233997
#	245132
#	254362
#	263490
#
# Disc length: 3658 seconds
#
# Revision: 2
# Processed by: cddbd v1.5.2PL0 Copyright (c) Steve Scherf et al.
# Submitted via: CDex 1.70beta2
#
DISCID=b10e481e
DTITLE=Varios - Lo Esencial de la Salsa
DYEAR=2009
DGENRE=Salsa
TTITLE0=Orquesta Guayacan - Invierno en primavera
TTITLE1=Nelson Diaz y su Constelacion - Asi fue
TTITLE2=Rey Ruiz - Mi media mitad
TTITLE3=Hansel y Raul - Maria Teresa y Danilo
TTITLE4=Ramon Chaverra - Vivo pensando
TTITLE5=Zayda - Lo quiero a morir
TTITLE6=Hansel Camacho - Verdades
TTITLE7=Titanes - Sobredosis
TTITLE8=Grupo Caneo - De punta a punta
TTITLE9=Son de Azucar - Simplemente Amigos
TTITLE10=Hansel, Raul, Luiz Enrique - Ella
TTITLE11=Alberto Barros - Canta Carile Cardona - Por retenerte
TTITLE12=Orquesta Guayacan - Me amas y me dejas
TTITLE13=Luiz Enrique - Tu no le amas, le temes
TTITLE14=Orquesta Canela - Embrujo de Amor
TTITLE15=Son by Four - A puro dolor
TTITLE16=Willy Chirino - Oxigeno
TTITLE17=Maelo Ruiz - Te va a doler
TTITLE18=Orquesta Pasion Juvenil - Mentiras tuyas
TTITLE19=Polo Montañez - Un monton de estrellas
TTITLE20=Naty y su Orquesta - Piensa en mi
TTITLE21=David Pabon - Si me ves llorar
TTITLE22=Jerry Rivera - Amores como el nuestro
TTITLE23=German Carreño - Vestida de blanco
TTITLE24=Eddie Santiago - Que locura enamorarme de ti
TTITLE25=Luiz Enrique - No te quites la ropa
TTITLE26=N'Klabe feat. Victor Manuelle - Evitare
TTITLE27=Ruben Blades - Pedro Navaja
TTITLE28=Grupo Niche - Cali Pachanguero
TTITLE29=Willie Colon - Talento de Television
EXTD=YEAR: 2009
EXTT0=
EXTT1=
EXTT2=
EXTT3=
EXTT4=
EXTT5=
EXTT6=
EXTT7=
EXTT8=
EXTT9=
EXTT10=
EXTT11=
EXTT12=
EXTT13=
EXTT14=
EXTT15=
EXTT16=
EXTT17=
EXTT18=
EXTT19=
EXTT20=
EXTT21=
EXTT22=
EXTT23=
EXTT24=
EXTT25=
EXTT26=
EXTT27=
EXTT28=
EXTT29=
PLAYORDER=
